<svg xmlns="http://www.w3.org/2000/svg" viewBox="0 0 400 600" preserveAspectRatio="none">
  <path d="M 0.0,13.1 Q 80.0,40.8 120.0,43.1 Q 160.0,45.4 200.0,32.9 Q 240.0,20.4 280.0,16.4 Q 320.0,12.5 360.0,34.2 Q 400.0,55.9 402.3,102.9 Q 404.7,150.0 396.0,225.0 Q 387.4,300.0 395.0,375.0 Q 402.7,450.0 405.2,525.0 Q 407.7,600.0 403.9,609.6 Q 400.0,619.3 360.0,625.2 Q 320.0,631.1 280.0,637.2 Q 240.0,643.4 200.0,630.5 Q 160.0,617.5 120.0,631.5 Q 80.0,645.5 40.0,622.4 Q 0.0,599.4 -12.2,599.7 Q -24.4,600.0 -4.5,525.0 Q 15.4,450.0 -4.3,375.0 Q -24.0,300.0 -27.6,225.0 Z" fill="white"/>
</svg>